# xmcd
#
# Track frame offsets: 
#        150
#        15073
#        29438
#        41371
#        55191
#        68035
#        82020
#        118201
#        132487
#        146416
#        158219
#        170430
#        184011
#        197478
#        211919
#        224394
#        237740
#        250324
#        264189
#        279114
#        293675
#        308525
#        321731
#
# Disc length: 4467 seconds
#
# Revision: 0
# Processed by: cddbd v1.5.2PL0 Copyright (c) Steve Scherf et al.
# Submitted via: ExactAudioCopy v0.95b3
#
DISCID=4b117117
DTITLE=Dexter Gordon  - Volume 2 Young Dex 1944-1946 Complete Edition
DYEAR=1900
DGENRE=
TTITLE0=Blowing The Blues Away
TTITLE1=Blowing The Blues Away
TTITLE2=Groovin' High
TTITLE3=Blue 'n' Boogie
TTITLE4=Lonesome Lover Blues
TTITLE5=Last Night
TTITLE6=Honeysuckle Rose
TTITLE7=Takin' Off
TTITLE8=If I Had You
TTITLE9=The Street Beat
TTITLE10=Blow Mr. Dexter
TTITLE11=Blow Mr. Dexter (master take)
TTITLE12=Dexter's Deck
TTITLE13=Dexter Cuttin' Out
TTITLE14=Dexter's Minor Mad
TTITLE15=Looking For A Boy
TTITLE16=Long Tall Dexter
TTITLE17=Long Tail Dexter (master take)
TTITLE18=Dexter Rides Again
TTITLE19=I Can't Escape From You
TTITLE20=I Can't Escape From You (master take)
TTITLE21=Dexter Digs In
TTITLE22=Dexter Digs In (master take)
EXTD=
EXTT0=
EXTT1=
EXTT2=
EXTT3=
EXTT4=
EXTT5=
EXTT6=
EXTT7=
EXTT8=
EXTT9=
EXTT10=
EXTT11=
EXTT12=
EXTT13=
EXTT14=
EXTT15=
EXTT16=
EXTT17=
EXTT18=
EXTT19=
EXTT20=
EXTT21=
EXTT22=
PLAYORDER=
